<svg width="23" height="25" xmlns="http://www.w3.org/2000/svg" xmlns:xlink="http://www.w3.org/1999/xlink" overflow="hidden"><defs><clipPath id="clip0"><rect x="145" y="295" width="23" height="25"/></clipPath></defs><g clip-path="url(#clip0)" transform="translate(-145 -295)"><path d="M5.75 9.58453C6.94087 9.58453 7.90625 8.61915 7.90625 7.42828 7.90625 6.23741 6.94087 5.27203 5.75 5.27203 4.55913 5.27203 3.59375 6.23741 3.59375 7.42828 3.59375 8.61915 4.55913 9.58453 5.75 9.58453ZM5.75 5.75C6.67623 5.75 7.42708 6.50085 7.42708 7.42708 7.42708 8.35331 6.67623 9.10417 5.75 9.10417 4.82377 9.10417 4.07292 8.35331 4.07292 7.42708 4.07411 6.50136 4.82427 5.7512 5.75 5.75Z" stroke="#FFFFFF" stroke-width="0.23958" fill="#405064" transform="matrix(1 0 0 1.08696 145 295)"/><path d="M17.25 9.58453C18.4409 9.58453 19.4062 8.61915 19.4062 7.42828 19.4062 6.23741 18.4409 5.27203 17.25 5.27203 16.0591 5.27203 15.0938 6.23741 15.0938 7.42828 15.0938 8.61915 16.0591 9.58453 17.25 9.58453ZM17.25 5.75C18.1762 5.75 18.9271 6.50085 18.9271 7.42708 18.9271 8.35331 18.1762 9.10417 17.25 9.10417 16.3238 9.10417 15.5729 8.35331 15.5729 7.42708 15.5741 6.50136 16.3243 5.7512 17.25 5.75Z" stroke="#FFFFFF" stroke-width="0.23958" fill="#405064" transform="matrix(1 0 0 1.08696 145 295)"/><path d="M21.0594 11.3776C20.4487 10.9014 19.7418 10.5637 18.9877 10.3879 18.4231 10.2193 17.8389 10.1252 17.25 10.108 16.6614 10.1086 16.0767 10.2027 15.5176 10.3867 15.1201 10.4896 14.7352 10.6362 14.37 10.8239 14.3641 11.021 14.3378 11.2169 14.2914 11.4085 14.7174 11.1607 15.175 10.9716 15.6517 10.8464 16.1676 10.6769 16.707 10.5894 17.25 10.5872 17.7977 10.6048 18.3408 10.6934 18.8658 10.8507 19.5559 11.0094 20.2029 11.3173 20.7613 11.7528L20.7819 11.7681C20.979 11.9102 21.0921 12.1413 21.0833 12.3841L21.0833 14.1809 21.5625 14.1809 21.5625 12.3841C21.5712 11.9861 21.383 11.6094 21.0594 11.3776Z" stroke="#FFFFFF" stroke-width="0.23958" fill="#405064" transform="matrix(1 0 0 1.08696 145 295)"/><path d="M8.69855 11.3713C8.65495 11.182 8.63085 10.9887 8.62668 10.7944 8.26107 10.6218 7.87942 10.4854 7.48722 10.3871 6.92278 10.2188 6.33875 10.125 5.75 10.108 5.16142 10.1086 4.57666 10.2027 4.01757 10.3867 3.2677 10.5911 2.56095 10.9295 1.93152 11.3855 1.62156 11.6241 1.43979 11.9929 1.43942 12.3841L1.43942 14.1809 1.91858 14.1809 1.91858 12.3841C1.91903 12.1423 2.03116 11.9143 2.22237 11.7664 2.80538 11.3464 3.45925 11.0347 4.1527 10.8464 4.6683 10.677 5.2073 10.5895 5.75 10.5872 6.29771 10.6048 6.84082 10.6934 7.36575 10.8507 7.83102 10.9648 8.27916 11.1398 8.69855 11.3713Z" stroke="#FFFFFF" stroke-width="0.23958" fill="#405064" transform="matrix(1 0 0 1.08696 145 295)"/><path d="M15.3094 14.6865C14.6988 14.2102 13.9919 13.8725 13.2377 13.6967 12.6731 13.5282 12.0889 13.434 11.5 13.4167 10.9116 13.4172 10.327 13.5113 9.76805 13.6953 9.01811 13.8996 8.31136 14.238 7.682 14.6941 7.37104 14.9322 7.18834 15.3011 7.1875 15.6927L7.1875 17.4896 7.66667 17.4896 7.66667 15.6927C7.6671 15.4509 7.77934 15.2229 7.9707 15.0751 8.55356 14.6549 9.20738 14.3433 9.90078 14.1551 10.417 13.9855 10.9566 13.898 11.5 13.8958 12.0478 13.9134 12.591 14.002 13.116 14.1594 13.8061 14.3178 14.4531 14.6257 15.0113 15.0612L15.0319 15.0765C15.229 15.2187 15.3421 15.4499 15.3333 15.6927L15.3333 17.4896 15.8125 17.4896 15.8125 15.6927C15.8212 15.2948 15.6329 14.9183 15.3094 14.6865Z" stroke="#FFFFFF" stroke-width="0.23958" fill="#405064" transform="matrix(1 0 0 1.08696 145 295)"/><path d="M11.5 12.8932C12.6909 12.8932 13.6562 11.9278 13.6562 10.7369 13.6562 9.54605 12.6909 8.58068 11.5 8.58068 10.3091 8.58068 9.34375 9.54605 9.34375 10.7369 9.34375 11.9278 10.3091 12.8932 11.5 12.8932ZM11.5 9.05984C12.4262 9.05984 13.1771 9.8107 13.1771 10.7369 13.1771 11.6632 12.4262 12.414 11.5 12.414 10.5738 12.414 9.82292 11.6632 9.82292 10.7369 9.82359 9.81077 10.5738 9.05996 11.5 9.05865Z" stroke="#FFFFFF" stroke-width="0.23958" fill="#405064" transform="matrix(1 0 0 1.08696 145 295)"/></g></svg>