<svg width="23" height="24" xmlns="http://www.w3.org/2000/svg" xmlns:xlink="http://www.w3.org/1999/xlink" overflow="hidden"><defs><clipPath id="clip0"><rect x="144" y="223" width="23" height="24"/></clipPath></defs><g clip-path="url(#clip0)" transform="translate(-144 -223)"><path d="M14.1354 5.23897 14.1354 11.5 11.5 11.5 11.5 4.07292 5.27083 4.07292 5.27083 9.58333 2.63542 9.58333 2.63542 18.9271 20.3646 18.9271 20.3646 6.01761ZM5.75 4.55208 11.0208 4.55208 11.0208 11.5 8.86458 11.5 8.86458 9.58333 5.75 9.58333ZM8.38542 18.4479 6.22917 18.4479 6.22917 17.0104 5.27083 17.0104 5.27083 18.4479 3.11458 18.4479 3.11458 10.0625 8.38542 10.0625 8.38542 18.4479ZM14.1354 18.4479 11.9792 18.4479 11.9792 17.0104 11.0208 17.0104 11.0208 18.4479 8.86458 18.4479 8.86458 11.9792 14.1354 11.9792ZM19.8854 18.4479 17.7292 18.4479 17.7292 17.0104 16.7708 17.0104 16.7708 18.4479 14.6146 18.4479 14.6146 5.78186 19.8854 6.44072Z" stroke="#FFFFFF" stroke-width="0.23958" fill="#405064" transform="matrix(1 0 0 1.04348 144 223)"/><path d="M10.0625 15.0981 11.0208 15.0981 11.0208 16.0566 10.0625 16.0566Z" stroke="#FFFFFF" stroke-width="0.23958" fill="#405064" transform="matrix(1 0 0 1.04348 144 223)"/><path d="M11.9792 15.0981 12.9375 15.0981 12.9375 16.0566 11.9792 16.0566Z" stroke="#FFFFFF" stroke-width="0.23958" fill="#405064" transform="matrix(1 0 0 1.04348 144 223)"/><path d="M10.0625 13.1771 11.0208 13.1771 11.0208 14.1357 10.0625 14.1357Z" stroke="#FFFFFF" stroke-width="0.23958" fill="#405064" transform="matrix(1 0 0 1.04348 144 223)"/><path d="M11.9792 13.1771 12.9375 13.1771 12.9375 14.1357 11.9792 14.1357Z" stroke="#FFFFFF" stroke-width="0.23958" fill="#405064" transform="matrix(1 0 0 1.04348 144 223)"/><path d="M6.94792 7.67098 7.90625 7.67098 7.90625 8.62955 6.94792 8.62955Z" stroke="#FFFFFF" stroke-width="0.23958" fill="#405064" transform="matrix(1 0 0 1.04348 144 223)"/><path d="M8.86458 7.67098 9.82292 7.67098 9.82292 8.62955 8.86458 8.62955Z" stroke="#FFFFFF" stroke-width="0.23958" fill="#405064" transform="matrix(1 0 0 1.04348 144 223)"/><path d="M6.94792 5.75 7.90625 5.75 7.90625 6.70857 6.94792 6.70857Z" stroke="#FFFFFF" stroke-width="0.23958" fill="#405064" transform="matrix(1 0 0 1.04348 144 223)"/><path d="M8.86458 5.75 9.82292 5.75 9.82292 6.70857 8.86458 6.70857Z" stroke="#FFFFFF" stroke-width="0.23958" fill="#405064" transform="matrix(1 0 0 1.04348 144 223)"/><path d="M4.31274 15.0981 5.27107 15.0981 5.27107 16.0566 4.31274 16.0566Z" stroke="#FFFFFF" stroke-width="0.23958" fill="#405064" transform="matrix(1 0 0 1.04348 144 223)"/><path d="M6.22941 15.0981 7.18774 15.0981 7.18774 16.0566 6.22941 16.0566Z" stroke="#FFFFFF" stroke-width="0.23958" fill="#405064" transform="matrix(1 0 0 1.04348 144 223)"/><path d="M4.31274 13.1771 5.27107 13.1771 5.27107 14.1357 4.31274 14.1357Z" stroke="#FFFFFF" stroke-width="0.23958" fill="#405064" transform="matrix(1 0 0 1.04348 144 223)"/><path d="M6.22941 13.1771 7.18774 13.1771 7.18774 14.1357 6.22941 14.1357Z" stroke="#FFFFFF" stroke-width="0.23958" fill="#405064" transform="matrix(1 0 0 1.04348 144 223)"/><path d="M4.31274 11.2604 5.27107 11.2604 5.27107 12.219 4.31274 12.219Z" stroke="#FFFFFF" stroke-width="0.23958" fill="#405064" transform="matrix(1 0 0 1.04348 144 223)"/><path d="M6.22941 11.2604 7.18774 11.2604 7.18774 12.219 6.22941 12.219Z" stroke="#FFFFFF" stroke-width="0.23958" fill="#405064" transform="matrix(1 0 0 1.04348 144 223)"/><path d="M15.8125 15.0981 16.7708 15.0981 16.7708 16.0566 15.8125 16.0566Z" stroke="#FFFFFF" stroke-width="0.23958" fill="#405064" transform="matrix(1 0 0 1.04348 144 223)"/><path d="M17.7292 15.0981 18.6875 15.0981 18.6875 16.0566 17.7292 16.0566Z" stroke="#FFFFFF" stroke-width="0.23958" fill="#405064" transform="matrix(1 0 0 1.04348 144 223)"/><path d="M15.8125 13.1771 16.7708 13.1771 16.7708 14.1357 15.8125 14.1357Z" stroke="#FFFFFF" stroke-width="0.23958" fill="#405064" transform="matrix(1 0 0 1.04348 144 223)"/><path d="M17.7292 13.1771 18.6875 13.1771 18.6875 14.1357 17.7292 14.1357Z" stroke="#FFFFFF" stroke-width="0.23958" fill="#405064" transform="matrix(1 0 0 1.04348 144 223)"/><path d="M15.8125 11.2604 16.7708 11.2604 16.7708 12.219 15.8125 12.219Z" stroke="#FFFFFF" stroke-width="0.23958" fill="#405064" transform="matrix(1 0 0 1.04348 144 223)"/><path d="M17.7292 11.2604 18.6875 11.2604 18.6875 12.219 17.7292 12.219Z" stroke="#FFFFFF" stroke-width="0.23958" fill="#405064" transform="matrix(1 0 0 1.04348 144 223)"/><path d="M15.8125 9.34806 16.7708 9.34806 16.7708 10.3066 15.8125 10.3066Z" stroke="#FFFFFF" stroke-width="0.23958" fill="#405064" transform="matrix(1 0 0 1.04348 144 223)"/><path d="M17.7292 9.34806 18.6875 9.34806 18.6875 10.3066 17.7292 10.3066Z" stroke="#FFFFFF" stroke-width="0.23958" fill="#405064" transform="matrix(1 0 0 1.04348 144 223)"/><path d="M15.8125 7.42708 16.7708 7.42708 16.7708 8.38566 15.8125 8.38566Z" stroke="#FFFFFF" stroke-width="0.23958" fill="#405064" transform="matrix(1 0 0 1.04348 144 223)"/><path d="M17.7292 7.42708 18.6875 7.42708 18.6875 8.38566 17.7292 8.38566Z" stroke="#FFFFFF" stroke-width="0.23958" fill="#405064" transform="matrix(1 0 0 1.04348 144 223)"/></g></svg>