<svg width="23" height="25" xmlns="http://www.w3.org/2000/svg" xmlns:xlink="http://www.w3.org/1999/xlink" overflow="hidden"><defs><clipPath id="clip0"><rect x="144" y="259" width="23" height="25"/></clipPath></defs><g clip-path="url(#clip0)" transform="translate(-144 -259)"><path d="M10.7812 4.79167C11.2444 4.79167 11.6198 4.41624 11.6198 3.95312 11.6198 3.49001 11.2444 3.11458 10.7812 3.11458L10.7573 3.11458C10.3015 3.12273 9.93763 3.49725 9.94271 3.95312 9.9435 4.4159 10.3185 4.79088 10.7812 4.79167ZM10.7654 3.59375 10.7812 3.59375C10.9797 3.59375 11.1406 3.75465 11.1406 3.95315 11.1406 4.15162 10.9797 4.3125 10.7812 4.3125 10.5827 4.3125 10.4219 4.1516 10.4219 3.9531 10.4219 3.952 10.4219 3.95087 10.4219 3.94977 10.4188 3.75674 10.5724 3.59756 10.7654 3.59375Z" stroke="#FFFFFF" stroke-width="0.23958" fill="#405064" transform="matrix(1 0 0 1.08696 144 259)"/><path d="M10.7812 12.5738 10.7812 12.4583 5.51042 12.4583 5.51042 12.9375 10.4183 12.9375 10.7812 12.5738Z" stroke="#FFFFFF" stroke-width="0.23958" fill="#405064" transform="matrix(1 0 0 1.08696 144 259)"/><path d="M5.51042 15.8125 9.38616 15.8125 9.54524 15.3333 5.51042 15.3333 5.51042 15.8125Z" stroke="#FFFFFF" stroke-width="0.23958" fill="#405064" transform="matrix(1 0 0 1.08696 144 259)"/><path d="M13.7657 9.58333 5.51042 9.58333 5.51042 10.0625 13.2875 10.0625 13.7657 9.58333Z" stroke="#FFFFFF" stroke-width="0.23958" fill="#405064" transform="matrix(1 0 0 1.08696 144 259)"/><path d="M19.9432 5.19632C19.7317 4.97945 19.3845 4.97507 19.1676 5.1865 19.1673 5.18681 19.167 5.18715 19.1667 5.18746L19.1578 5.19632 10.9307 13.4406 10.0625 16.0569 12.6907 15.1896 20.9065 6.9436C21.1228 6.75369 21.1442 6.42445 20.9544 6.20808ZM10.8855 15.0988 11.3083 13.824C11.6082 13.5657 12.0607 13.5995 12.3189 13.8995 12.5389 14.1549 12.5511 14.5291 12.3481 14.7983L11.0218 15.2361ZM12.6224 13.5204C12.4206 13.3201 12.1536 13.1989 11.8699 13.1788L18.2189 6.81662 19.2896 7.88756 12.9615 14.2396C12.9343 13.9681 12.8146 13.7141 12.6224 13.5204ZM20.5898 6.58399 20.5781 6.59429 20.567 6.60555 19.6279 7.54807 18.5572 6.47761 19.5021 5.53006C19.5148 5.51744 19.5321 5.51037 19.55 5.51042 19.5703 5.51054 19.5897 5.51923 19.6032 5.53438L20.5967 6.52936C20.6083 6.54678 20.6053 6.57002 20.5898 6.58399Z" stroke="#FFFFFF" stroke-width="0.23958" fill="#405064" transform="matrix(1 0 0 1.08696 144 259)"/><path d="M17.9688 10.9109 17.4896 11.3917 17.4896 20.125C17.4896 20.3896 17.2751 20.6042 17.0104 20.6042L4.55208 20.6042C4.28744 20.6042 4.07292 20.3896 4.07292 20.125L4.07292 4.54705C4.07292 4.28241 4.28744 4.06789 4.55208 4.06789L7.1875 4.06789 7.1875 6.46875 14.375 6.46875 14.375 4.06789 17.0104 4.06789C17.2751 4.06789 17.4896 4.28241 17.4896 4.54705L17.4896 5.85254 17.9688 5.37337 17.9688 4.54705C17.9688 4.01779 17.5397 3.58872 17.0104 3.58872L13.4167 3.58872 13.4167 3.10955C13.4157 2.44835 12.88 1.91256 12.2188 1.91164L9.34375 1.91164C8.68248 1.91243 8.14662 2.44828 8.14583 3.10955L8.14583 3.58872 4.55208 3.58872C4.02308 3.58939 3.59442 4.01805 3.59375 4.54705L3.59375 20.125C3.59375 20.6543 4.02282 21.0833 4.55208 21.0833L17.0104 21.0833C17.5397 21.0833 17.9688 20.6543 17.9688 20.125ZM7.66667 4.06789 8.625 4.06789 8.625 3.10955C8.625 2.71259 8.94678 2.3908 9.34375 2.3908L12.2188 2.3908C12.6157 2.3908 12.9375 2.71259 12.9375 3.10955L12.9375 4.06789 13.8958 4.06789 13.8958 5.98958 7.66667 5.98958Z" stroke="#FFFFFF" stroke-width="0.23958" fill="#405064" transform="matrix(1 0 0 1.08696 144 259)"/></g></svg>