<svg width="363" height="326" xmlns="http://www.w3.org/2000/svg" xmlns:xlink="http://www.w3.org/1999/xlink" overflow="hidden"><defs><clipPath id="clip0"><rect x="532" y="320" width="363" height="326"/></clipPath></defs><g clip-path="url(#clip0)" transform="translate(-532 -320)"><path d="M108.276 111.421 252.837 111.421 252.837 95.6504C252.837 89.2737 247.668 84.1046 241.291 84.1046L154.772 84.1046 123.045 63.0504C121.147 61.8222 118.956 61.1243 116.698 61.0299L62.4833 61.0299C56.1066 61.0299 50.9375 66.1991 50.9375 72.5757L50.9375 216.539 51.053 216.539 89.2561 123.727C92.6692 116.28 100.085 111.482 108.276 111.421Z" transform="matrix(1.1135 0 0 1 532 320)"/><path d="M193.423 173.008C211.843 154.597 240.313 150.809 262.905 163.764L274.757 138.295C275.532 136.685 275.927 134.917 275.911 133.13 275.945 127.201 271.481 122.21 265.585 121.584L108.327 121.584C104.103 121.613 100.278 124.087 98.5199 127.928L59.5901 222.556 177.229 222.556C174.434 204.404 180.447 186.005 193.423 173.008Z" transform="matrix(1.1135 0 0 1 532 320)"/><path d="M215.034 194.619C207.727 201.935 205.211 212.768 208.545 222.556L235.532 222.556 249.916 191.654C239.12 184.017 224.393 185.265 215.034 194.608Z" transform="matrix(1.1135 0 0 1 532 320)"/><path d="M267.86 180.21C249.315 161.639 219.226 161.617 200.655 180.162 183.656 197.136 181.998 224.126 196.792 243.053L189.345 250.5C185.263 249.395 180.901 250.552 177.904 253.536L156.293 275.147C151.651 279.789 151.651 287.315 156.293 291.957 160.935 296.599 168.461 296.599 173.103 291.957L194.714 270.346C197.698 267.349 198.855 262.987 197.75 258.905L205.22 251.434C225.97 267.501 255.817 263.705 271.884 242.955 286.549 224.016 284.824 197.121 267.86 180.21ZM260.657 240.242C246.07 254.83 222.419 254.83 207.831 240.243 193.243 225.655 193.242 202.004 207.829 187.416 222.417 172.828 246.068 172.828 260.656 187.415 260.657 187.415 260.657 187.416 260.657 187.416 275.222 202.013 275.222 225.645 260.657 240.242Z" transform="matrix(1.1135 0 0 1 532 320)"/></g></svg>