<svg width="28" height="28" xmlns="http://www.w3.org/2000/svg" xmlns:xlink="http://www.w3.org/1999/xlink" overflow="hidden"><defs><clipPath id="clip0"><rect x="430" y="261" width="28" height="28"/></clipPath></defs><g clip-path="url(#clip0)" transform="translate(-430 -261)"><path d="M444 265.667C446.255 265.667 448.083 267.495 448.083 269.75 448.083 272.005 446.255 273.833 444 273.833 441.745 273.833 439.917 272.005 439.917 269.75 439.919 267.496 441.746 265.669 444 265.667M444 265.083C441.423 265.083 439.333 267.173 439.333 269.75 439.333 272.327 441.423 274.417 444 274.417 446.577 274.417 448.667 272.327 448.667 269.75 448.667 267.173 446.577 265.083 444 265.083Z"/><path d="M453.333 284.917 452.75 284.917 452.75 280.396C452.736 279.776 452.444 279.196 451.955 278.815 450.676 277.834 449.211 277.121 447.65 276.721 446.467 276.357 445.237 276.17 444 276.167 442.763 276.188 441.535 276.375 440.347 276.721 438.802 277.173 437.344 277.883 436.034 278.821 435.55 279.202 435.262 279.78 435.25 280.396L435.25 284.917 434.667 284.917 434.667 280.396C434.681 279.599 435.053 278.851 435.681 278.36 437.049 277.377 438.574 276.634 440.19 276.16 441.429 275.799 442.71 275.605 444 275.583 445.293 275.587 446.578 275.781 447.814 276.161 449.45 276.582 450.983 277.331 452.322 278.361 452.948 278.853 453.319 279.6 453.333 280.396Z"/></g></svg>